<svg xmlns="http://www.w3.org/2000/svg" viewBox="0 0 399.37 345.87">
  <defs>
    <style>
      .a {
        fill: #f8c945;
      }

      .b {
        fill: none;
        stroke: #fff;
        stroke-miterlimit: 10;
        stroke-width: 10px;
      }
    </style>
  </defs>
  <polygon class="a" points="299.53 0 99.84 0 0 172.93 99.84 345.87 299.53 345.87 399.37 172.93 299.53 0"/>
  <g>
    <g>
      <polygon class="b" points="233.29 158.14 191.18 158.14 170.12 121.67 191.18 85.2 233.29 85.2 254.34 121.67 233.29 158.14"/>
      <polygon class="b" points="296.44 194.59 254.33 194.59 233.28 158.12 254.33 121.64 296.44 121.65 317.5 158.12 296.44 194.59"/>
      <polygon class="b" points="296.44 121.64 254.33 121.64 233.28 85.17 254.33 48.7 296.44 48.7 317.5 85.17 296.44 121.64"/>
    </g>
    <g>
      <polygon class="b" points="166.08 260.97 208.19 261.49 229.68 225.28 209.07 188.55 166.97 188.04 145.47 224.25 166.08 260.97"/>
      <polygon class="b" points="102.48 296.65 144.59 297.16 166.09 260.95 145.48 224.23 103.37 223.71 81.87 259.92 102.48 296.65"/>
      <polygon class="b" points="103.37 223.71 145.48 224.23 166.98 188.02 146.37 151.29 104.26 150.78 82.76 186.99 103.37 223.71"/>
    </g>
  </g>
</svg>
